<?xml version="1.0" encoding="UTF-8" standalone="no"?>
<!DOCTYPE svg PUBLIC "-//W3C//DTD SVG 1.1//EN" "http://www.w3.org/Graphics/SVG/1.1/DTD/svg11.dtd">
<!-- Created with Vectornator (http://vectornator.io/) -->
<svg height="100%" stroke-miterlimit="10" style="fill-rule:nonzero;clip-rule:evenodd;stroke-linecap:round;stroke-linejoin:round;" version="1.1" viewBox="0 0 1920 1080" width="100%" xml:space="preserve" xmlns="http://www.w3.org/2000/svg" xmlns:vectornator="http://vectornator.io" xmlns:xlink="http://www.w3.org/1999/xlink">
<defs/>
<g id="Layer-1" vectornator:layerName="Layer 1">
<path d="M971.497 315.35L971.497 446.87C971.497 451.067 968.094 454.47 963.897 454.47L936.516 454.47C932.319 454.47 928.917 451.067 928.917 446.87L928.917 315.35C928.917 311.153 932.319 307.75 936.516 307.75L963.897 307.75C968.094 307.75 971.497 311.153 971.497 315.35Z" fill="#000000" fill-rule="nonzero" opacity="0.896369" stroke="none"/>
<path d="M884.127 359.819L1015.65 359.819C1019.84 359.819 1023.25 363.222 1023.25 367.421L1023.25 394.799C1023.25 398.998 1019.84 402.401 1015.65 402.401L884.127 402.401C879.928 402.401 876.525 398.998 876.525 394.799L876.525 367.421C876.525 363.222 879.928 359.819 884.127 359.819Z" fill="#000000" fill-rule="nonzero" opacity="0.896396" stroke="none"/>
<path d="M1003.57 373.293L995.614 368.702C992.529 366.921 990.028 368.365 990.028 371.927L990.028 381.11L990.028 390.293C990.028 393.855 992.529 395.3 995.614 393.518L1003.57 388.927L1011.52 384.335C1014.6 382.554 1014.6 379.666 1011.52 377.885L1003.57 373.293Z" fill="#6d098c" fill-rule="nonzero" opacity="0.449719" stroke="none"/>
<path d="M897.077 388.927L905.03 393.518C908.115 395.3 910.616 393.855 910.616 390.293L910.616 381.11L910.616 371.927C910.616 368.365 908.115 366.921 905.03 368.702L897.077 373.293L889.125 377.885C886.04 379.666 886.04 382.554 889.125 384.335L897.077 388.927Z" fill="#6d098c" fill-rule="nonzero" opacity="0.45" stroke="none"/>
<path d="M958.024 433.763L962.615 425.81C964.396 422.725 962.952 420.224 959.39 420.224L950.207 420.224L941.024 420.224C937.461 420.224 936.017 422.725 937.799 425.81L942.39 433.763L946.982 441.716C948.763 444.801 951.651 444.801 953.432 441.716L958.024 433.763Z" fill="#6d098c" fill-rule="nonzero" opacity="0.449746" stroke="none"/>
<path d="M958.024 329.405L962.615 337.357C964.396 340.443 962.952 342.944 959.39 342.944L950.207 342.944L941.024 342.944C937.461 342.944 936.017 340.443 937.799 337.357L942.39 329.405L946.982 321.452C948.763 318.367 951.651 318.367 953.432 321.452L958.024 329.405Z" fill="#492c52" fill-rule="nonzero" opacity="0.453706" stroke="none"/>
<path d="M932.707 381.11C932.707 371.445 940.542 363.61 950.207 363.61C959.872 363.61 967.707 371.445 967.707 381.11C967.707 390.775 959.872 398.61 950.207 398.61C940.542 398.61 932.707 390.775 932.707 381.11Z" fill="#6b0f4d" fill-rule="nonzero" opacity="0.595562" stroke="none"/>
<path d="M870.207 381.11C870.207 336.927 906.024 301.11 950.207 301.11C994.39 301.11 1030.21 336.927 1030.21 381.11C1030.21 425.293 994.39 461.11 950.207 461.11C906.024 461.11 870.207 425.293 870.207 381.11Z" fill="#5e5e5e" fill-rule="nonzero" opacity="0.351849" stroke="none"/>
</g>
</svg>
