<?xml version="1.0" encoding="UTF-8" standalone="no"?>
<!DOCTYPE svg PUBLIC "-//W3C//DTD SVG 1.1//EN" "http://www.w3.org/Graphics/SVG/1.1/DTD/svg11.dtd">
<!-- Created with Vectornator (http://vectornator.io/) -->
<svg height="100" stroke-miterlimit="10" style="fill-rule:nonzero;clip-rule:evenodd;stroke-linecap:round;stroke-linejoin:round;" version="1.1" viewBox="0 0 165 165" width="100" xml:space="preserve" xmlns="http://www.w3.org/2000/svg" xmlns:vectornator="http://vectornator.io" xmlns:xlink="http://www.w3.org/1999/xlink">
<defs/>
<g id="Layer-1" vectornator:layerName="Layer 1">
<g opacity="1">
<path d="M2.84217e-14 82.6291C2.84217e-14 36.9249 37.125 5.68434e-14 83.0156 5.68434e-14C128.391 5.68434e-14 165 36.9249 165 82.6291C165 128.333 128.391 165 83.0156 165C37.125 165 2.84217e-14 128.333 2.84217e-14 82.6291Z" fill="#5e5e5e" fill-rule="nonzero" opacity="0" stroke="none"/>
<g opacity="1">
<path d="M108.097 19.8561L108.097 145.144C108.097 155.637 99.5907 164.144 89.0973 164.144L75.9027 164.144C65.4093 164.144 56.9027 155.637 56.9027 145.144L56.9027 19.856C56.9027 9.36264 65.4093 0.856048 75.9027 0.856049L89.0973 0.856049C99.5907 0.85605 108.097 9.36264 108.097 19.8561Z" fill="#9575cd" fill-rule="nonzero" opacity="1" stroke="none"/>
<path d="M21.4115 57.5L143.411 57.5C153.905 57.5 162.411 66.0066 162.411 76.5L162.411 88.5C162.411 98.9934 153.905 107.5 143.411 107.5L21.4115 107.5C10.918 107.5 2.41145 98.9934 2.41145 88.5L2.41145 76.5C2.41145 66.0066 10.918 57.5 21.4115 57.5Z" fill="#9575cd" fill-rule="nonzero" opacity="1" stroke="none"/>
</g>
<g opacity="1">
<path d="M22.5149 90.1553L27.8038 93.3397C32.1032 95.9283 35.5885 93.9585 35.5885 88.94L35.5885 82.5297L35.5885 76.1195C35.5885 71.101 32.0743 69.0824 27.7393 71.6109L22.5149 74.6582L17.2259 77.8426C12.9265 80.4312 12.9554 84.5795 17.2904 87.108L22.5149 90.1553Z" fill="#000000" fill-opacity="0.15" fill-rule="nonzero" opacity="1" stroke="none"/>
<path d="M141.485 74.6582L136.433 71.608C132.101 69.0811 128.589 71.0983 128.589 76.1137L128.411 82.5297L128.589 88.9458C128.589 93.9611 132.072 95.9297 136.368 93.3427L141.485 90.1553L146.892 87.1051C151.224 84.5782 151.253 80.4326 146.956 77.8456L141.485 74.6582Z" fill="#000000" fill-opacity="0.15" fill-rule="nonzero" opacity="1" stroke="none"/>
<path d="M74.6582 142.484L71.608 137.254C69.0811 132.922 71.0983 129.41 76.1137 129.41L82.5297 129.41L88.9458 129.41C93.9611 129.41 95.9297 132.893 93.3427 137.19L90.1553 142.484L87.1051 147.713C84.5782 152.045 80.4326 152.074 77.8456 147.778L74.6582 142.484Z" fill="#000000" fill-opacity="0.15" fill-rule="nonzero" opacity="1" stroke="none"/>
<path d="M74.6582 22.5176L71.608 27.7471C69.0811 32.0793 71.0983 35.5913 76.1137 35.5913L82.5297 35.5913L88.9458 35.5913C93.9611 35.5913 95.9297 32.1082 93.3427 27.8116L90.1553 22.5176L87.1051 17.2882C84.5782 12.9559 80.4326 12.9271 77.8456 17.2237L74.6582 22.5176Z" fill="#000000" fill-opacity="0.15" fill-rule="nonzero" opacity="1" stroke="none"/>
</g>
<path d="M67.5885 80.9624C67.5885 72.6646 74.4457 65.856 83.0171 65.856C91.16 65.856 97.5885 72.6646 97.5885 80.9624C97.5885 89.0475 91.16 95.856 83.0171 95.856C74.4457 95.856 67.5885 89.0475 67.5885 80.9624Z" fill="#000000" fill-opacity="0.15" fill-rule="nonzero" opacity="1" stroke="none"/>
</g>
</g>
</svg>
