<?xml version="1.0" encoding="UTF-8" standalone="no"?>
<!DOCTYPE svg PUBLIC "-//W3C//DTD SVG 1.1//EN" "http://www.w3.org/Graphics/SVG/1.1/DTD/svg11.dtd">
<!-- Created with Vectornator (http://vectornator.io/) -->
<svg height="100%" stroke-miterlimit="10" style="fill-rule:nonzero;clip-rule:evenodd;stroke-linecap:round;stroke-linejoin:round;" version="1.1" viewBox="0 0 165 165" width="100%" xml:space="preserve" xmlns="http://www.w3.org/2000/svg" xmlns:xlink="http://www.w3.org/1999/xlink">
<defs/>
<g id="Layer-1">
<g opacity="1">
<path d="M2.84217e-14 82.6291C2.84217e-14 36.9249 37.125 5.68434e-14 83.0156 5.68434e-14C128.391 5.68434e-14 165 36.9249 165 82.6291C165 128.333 128.391 165 83.0156 165C37.125 165 2.84217e-14 128.333 2.84217e-14 82.6291Z" fill="#5e5e5e" fill-rule="nonzero" opacity="0" stroke="none"/>
<g opacity="1">
<path d="M108.097 12.8561L108.097 152.144C108.097 158.771 102.725 164.144 96.0973 164.144L68.9027 164.144C62.2753 164.144 56.9027 158.771 56.9027 152.144L56.9027 12.856C56.9027 6.22863 62.2753 0.856048 68.9027 0.856049L96.0973 0.85605C102.725 0.85605 108.097 6.22863 108.097 12.8561Z" fill="#9575cd" fill-rule="nonzero" opacity="1" stroke="none"/>
<path d="M14.4115 57.5L150.411 57.5C157.039 57.5 162.411 62.8726 162.411 69.5L162.411 95.5C162.411 102.127 157.039 107.5 150.411 107.5L14.4115 107.5C7.78404 107.5 2.41145 102.127 2.41145 95.5L2.41145 69.5C2.41145 62.8726 7.78404 57.5 14.4115 57.5Z" fill="#9575cd" fill-rule="nonzero" opacity="1" stroke="none"/>
</g>
<g opacity="1">
<path d="M18.7883 86.797L21.7571 88.5845C24.1704 90.0375 26.1268 88.9318 26.1268 86.1148L26.1268 82.5167L26.1268 78.9186C26.1268 76.1016 24.1542 74.9685 21.7209 76.3878L18.7883 78.0983L15.8196 79.8858C13.4063 81.3388 13.4225 83.6672 15.8558 85.0865L18.7883 86.797Z" fill="#1f1f1f" fill-opacity="0.95" fill-rule="nonzero" opacity="1" stroke="none"/>
<path d="M146.108 78.0983L143.272 76.3862C140.841 74.9678 138.869 76.1001 138.869 78.9153L138.77 82.5167L138.869 86.1181C138.869 88.9333 140.825 90.0382 143.236 88.5861L146.108 86.797L149.143 85.0849C151.575 83.6665 151.591 81.3395 149.179 79.8874L146.108 78.0983Z" fill="#1f1f1f" fill-opacity="0.95" fill-rule="nonzero" opacity="1" stroke="none"/>
<path d="M78.0983 146.108L76.3862 143.173C74.9678 140.741 76.1001 138.77 78.9153 138.77L82.5167 138.77L86.1181 138.77C88.9333 138.77 90.0382 140.725 88.5861 143.137L86.797 146.108L85.0849 149.044C83.6665 151.476 81.3395 151.492 79.8874 149.08L78.0983 146.108Z" fill="#1f1f1f" fill-opacity="0.95" fill-rule="nonzero" opacity="1" stroke="none"/>
<path d="M78.0983 18.7898L76.3862 21.7252C74.9678 24.1569 76.1001 26.1282 78.9153 26.1282L82.5167 26.1282L86.1181 26.1282C88.9333 26.1282 90.0382 24.1731 88.5861 21.7614L86.797 18.7898L85.0849 15.8545C83.6665 13.4227 81.3395 13.4065 79.8874 15.8183L78.0983 18.7898Z" fill="#1f1f1f" fill-opacity="0.95" fill-rule="nonzero" opacity="1" stroke="none"/>
</g>
<path d="M75.5 82.5496C75.5 78.6773 78.7 75.5 82.7 75.5C86.5 75.5 89.5 78.6773 89.5 82.5496C89.5 86.3227 86.5 89.5 82.7 89.5C78.7 89.5 75.5 86.3227 75.5 82.5496Z" fill="#1f1f1f" fill-opacity="0.95" fill-rule="nonzero" opacity="1" stroke="none"/>
</g>
</g>
</svg>
